# xmcd
#
# Track frame offsets: 
#        150
#        28468
#        40967
#        62906
#        80611
#        98968
#        119602
#
# Disc length: 1762 seconds
#
# Revision: 0
# Processed by: cddbd v1.5.2PL0 Copyright (c) Steve Scherf et al.
# Submitted via: ExactAudioCopy v1.0b3
#
DISCID=6406e007
DTITLE=Hasperath - ... Bei Garlichs Und Dann Rechts! (Demo-EP)
DYEAR=2001
DGENRE=Rock
TTITLE0=Be With Me
TTITLE1=Bang!
TTITLE2=No Way Back
TTITLE3=My Heart
TTITLE4=The Break
TTITLE5=A New Spring
TTITLE6=Verlassen
EXTD=
EXTT0=
EXTT1=
EXTT2=
EXTT3=
EXTT4=
EXTT5=
EXTT6=
PLAYORDER=
